inDegrees=no
num_controls=7
num_derivatives=13
num_iterations=117
num_multipliers=7
num_parameters=0
num_slacks=7
num_states=26
objective=0.476003
objective_accelerations=0.046170
objective_balance=0.003652
objective_effort=0.041874
objective_height=0.378786
objective_ligament=0.005521
solver_duration=1637.972138
status=Solve_Succeeded
success=true
DataType=double
version=3
OpenSimVersion=4.5
endheader
time	/jointset/ground_pelvis/pelvis_tilt/value	/jointset/ground_pelvis/pelvis_tx/value	/jointset/ground_pelvis/pelvis_ty/value	/jointset/hip_l/hip_flexion_l/value	/jointset/hip_l/hip_adduction_l/value	/jointset/hip_l/hip_rotation_l/value	/jointset/back/lumbar_extension/value	/jointset/patellofemoral_l/patellar_flexion_l/value	/jointset/knee_l/knee_flexion_l/value	/jointset/knee_l/knee_adduction_l/value	/jointset/knee_l/knee_rotation_l/value	/jointset/ankle_l/ankle_angle_l/value	/jointset/subtalar_l/subtalar_angle_l/value	/jointset/ground_pelvis/pelvis_tilt/speed	/jointset/ground_pelvis/pelvis_tx/speed	/jointset/ground_pelvis/pelvis_ty/speed	/jointset/hip_l/hip_flexion_l/speed	/jointset/hip_l/hip_adduction_l/speed	/jointset/hip_l/hip_rotation_l/speed	/jointset/back/lumbar_extension/speed	/jointset/patellofemoral_l/patellar_flexion_l/speed	/jointset/knee_l/knee_flexion_l/speed	/jointset/knee_l/knee_adduction_l/speed	/jointset/knee_l/knee_rotation_l/speed	/jointset/ankle_l/ankle_angle_l/speed	/jointset/subtalar_l/subtalar_angle_l/speed	/forceset/tau_hip_flexion_l	/forceset/tau_hip_adduction_l	/forceset/tau_hip_rotation_l	/forceset/tau_knee_flexion_l	/forceset/tau_ankle_angle_l	/forceset/tau_subtalar_angle_l	/forceset/tau_lumbar_extension	lambda_cid13_p0	lambda_cid13_p1	lambda_cid13_p2	lambda_cid13_p3	lambda_cid13_p4	lambda_cid13_p5	lambda_cid14_p0	/jointset/ground_pelvis/pelvis_tilt/accel	/jointset/ground_pelvis/pelvis_tx/accel	/jointset/ground_pelvis/pelvis_ty/accel	/jointset/hip_l/hip_flexion_l/accel	/jointset/hip_l/hip_adduction_l/accel	/jointset/hip_l/hip_rotation_l/accel	/jointset/back/lumbar_extension/accel	/jointset/patellofemoral_l/patellar_flexion_l/accel	/jointset/knee_l/knee_flexion_l/accel	/jointset/knee_l/knee_adduction_l/accel	/jointset/knee_l/knee_rotation_l/accel	/jointset/ankle_l/ankle_angle_l/accel	/jointset/subtalar_l/subtalar_angle_l/accel	gamma_cid13_p0	gamma_cid13_p1	gamma_cid13_p2	gamma_cid13_p3	gamma_cid13_p4	gamma_cid13_p5	gamma_cid14_p0
1	-0.1187774451431758	-0.06085848505612325	0.6679229728532495	1.375956190974617	-0.3254018555704807	0.07803338957929401	-0.959930467730218	1.439756719420658	1.43975671942062	-0.05308448135202279	-0.1745270007512162	0.2836405452056486	0.070344651667887	0.09998443291339552	0.02468470514273837	0.06933395564145173	-0.2922444930335375	-0.007923214315824061	-0.06352515338220947	0.0001360027513166754	-0.1544637832148521	-0.1544637832148519	-0.001444284428347708	-5.71517994898315e-05	0.02953574491931219	0.003747874156507271	-0.3803048125492529	0.01835419284130678	0.002046101683957287	-0.3867286906959234	0.04314913529894442	0.02003683527761884	0.429871221501417	-38.00323340099127	-0.2403535928994257	-2.480648907780275	14.09856566082932	-804.3374930446315	-65.13606714473887	-0.04103904673589578	0.789700239733115	-0.02976907293440674	1.629224515421343	-5.132068991181793	-0.1458380333354324	-1.66055665569371	-0.0317723660170182	-5.169390799367636	-5.16939079936765	-0.4316383475226823	-0.01399269109090028	-1.194730542554054	-0.703523975063991	-8.211033351501405e-09	2.020094258159702e-08	5.36261974080673e-08	5.280969620548641e-09	-2.209895444544353e-08	1.291062741033018e-07	-1.581550859030271e-08
1.01	-0.1177382047935199	-0.06061302178610635	0.6686975958302868	1.372777632104924	-0.3254876399085063	0.07731438251281086	-0.9599300654455463	1.437954021167217	1.437954021167251	-0.0531186989613787	-0.1745272746675943	0.2838763965932636	0.07034805789340853	0.1078905825301153	0.02441926412080034	0.08558266616808222	-0.3434801871428775	-0.009225798087254461	-0.08026884946652876	-3.774462567360835e-05	-0.2060636021381685	-0.2060636021381725	-0.005396712862231895	-6.460843741685082e-07	0.01763412795536488	-0.003056515141584765	-0.3798821386105954	0.01859380461242467	0.001968476033621048	-0.38633857055456	0.04282823389424421	0.020191744620927	0.4298483175516227	-38.07509727906142	-0.3101281015382372	-2.452299677325704	13.93510817271988	-804.1318357305922	-65.17679350622737	-0.04106802120517551	0.7951120579387295	-0.02323156821753025	1.621492563783669	-5.121258433599394	-0.1212958847237998	-1.680181577572214	-0.007505745204272654	-5.153433145016864	-5.153433145017547	-0.3766781729364175	0.01504061248091628	-1.18793845177268	-0.6673909462388111	-1.571929849889954e-08	1.386417451612732e-08	8.103877016834248e-08	1.371292024027232e-08	-2.852411762481339e-08	1.552379865994937e-07	-2.240110214732798e-08
1.02	-0.1166190950006323	-0.06036987291658775	0.6696344655610904	1.369086328531581	-0.3255862155513811	0.07642815738692824	-0.9599308665989403	1.435635693583302	1.435635693583407	-0.05319236747139713	-0.1745270698448893	0.2839932195755481	0.07028372131813772	0.1159583215587218	0.02422182504307831	0.1017833063947195	-0.3947934337637928	-0.01048147528576342	-0.09696876526169509	-0.0001046848692350208	-0.2575896493096107	-0.2575896493096198	-0.009334464560720485	3.859601746484758e-05	0.005730063853114721	-0.009800686001956993	-0.37945946467194	0.01883341638353778	0.001890850383287207	-0.3859484504131945	0.04250733248954452	0.02034665396422897	0.4298254136018274	-38.15791638965695	-0.3771186765497552	-2.425383220952916	13.82967806775926	-804.0670401179532	-65.1930622494105	-0.04109821567472424	0.8220181221104775	-0.0161686840912233	1.619610455422708	-5.147579493496887	-0.136456718751138	-1.651800597863112	-0.01041093933117379	-5.154636448992786	-5.154636448992993	-0.4287030004435607	-0.01744541374621969	-1.195219970214643	-0.6914802875200298	-2.246257099221265e-08	3.861157592386106e-09	1.079601348891922e-07	1.959080031765684e-08	-3.552441237254979e-08	1.740114264492684e-07	-2.869715995262671e-08
1.03	-0.1154190714311865	-0.06012816846412888	0.6707330521816726	1.364881928446553	-0.325697079125795	0.0753752007167388	-0.9599299984077488	1.432802480706656	1.432802480706696	-0.05330534412305119	-0.1745265121322093	0.2839911571414001	0.07015238107597126	0.1240178839123428	0.02414969805900686	0.117921514573752	-0.446060172146147	-0.01168227808214986	-0.113613678249359	0.0004751352721256187	-0.3090408121402407	-0.3090408121402456	-0.01325899044779721	6.992440847132446e-05	-0.006126164027388384	-0.01644672549491966	-0.3801991991559475	0.01916336765947773	0.00177491355895436	-0.3851463754575641	0.04209522640895102	0.02061189299830136	0.4312319397903882	-38.29109103263992	-0.4981397835638091	-2.37279771160743	13.36353525806015	-804.7084587337935	-65.23211199697289	-0.04113830548831723	0.7936463862314799	0.001865309918990302	1.609041978362431	-5.112263257020934	-0.1105594654450404	-1.66953091610593	0.1217003151543986	-5.138532081998746	-5.13853208199796	-0.3740656378203641	0.01300075845006923	-1.178368403756918	-0.6480849196641638	-2.91980374380351e-08	-6.179270033990549e-09	1.34876487283109e-07	2.544261845073176e-08	-4.253057580975931e-08	1.927097818842836e-07	-3.499026331147924e-08
1.04	-0.1141393080193531	-0.05988626527841392	0.6719926440798888	1.360165652528431	-0.325819684209243	0.07415605606329323	-0.9599174276502858	1.429455121025324	1.429455121025289	-0.05345751368457246	-0.1745257253770353	0.2838710235870894	0.06995519661097924	0.1319062900357081	0.02426157169429382	0.1339843619215523	-0.4971686003851492	-0.01282977709304236	-0.1302063619125395	0.002235828384871461	-0.3604190102468955	-0.3604190102468939	-0.01717304653409887	8.440451651683565e-05	-0.01788416017944282	-0.02296953056707399	-0.3809389336399089	0.01949331893542041	0.001658976734641142	-0.3843443005019306	0.04168312032834944	0.02087713203237352	0.4326384659789899	-38.43545416529552	-0.6163006490321151	-2.321697658354184	12.95358089203649	-805.4949792546666	-65.24720964537526	-0.04117936448469562	0.7877868760593592	0.02063143978044221	1.604538289176289	-5.115917464826508	-0.1257959616523454	-1.641354732966422	0.2257636549457252	-5.140043504197741	-5.140043504197504	-0.4266090402885463	-0.02081507033840961	-1.17557362452494	-0.6668334033583712	-3.350000943626735e-08	-1.768196653987907e-08	1.610380985236607e-07	2.597894134349058e-08	-4.782763292708905e-08	2.052458399796006e-07	-4.08597719112177e-08
1.05	-0.1127816069634503	-0.05964232132235468	0.6734123765821157	1.354939427230406	-0.3259534569127924	0.07277135718533427	-0.9598813377689545	1.425594506880658	1.425594506880597	-0.05364878266536879	-0.1745248679321252	0.2836337231491884	0.06969343262404072	0.1395950569225532	0.02455812379484395	0.1499384305401161	-0.548014767660718	-0.01391140143915164	-0.1467171224532457	0.005181591803529055	-0.4116756877006151	-0.4116756877006119	-0.02107629500516388	8.540870873474137e-05	-0.02956716520026559	-0.0293588968755493	-0.3812072542555593	0.01982129668427239	0.001510461011283925	-0.3832888054307313	0.041454645570458	0.02120854994322477	0.4336358113946165	-38.47987525232435	-0.7902230590496667	-2.250832442937328	12.45255611210053	-805.7174779907091	-65.30942903435462	-0.04123613978122011	0.7535884396011354	0.03880801030060928	1.587274283402341	-5.059717622177931	-0.09735943479627804	-1.653530862965827	0.3588992732095242	-5.114250815737533	-5.114250815737397	-0.3715411325954543	0.01034967830114104	-1.163352777390848	-0.6213499398979301	-3.772593473301241e-08	-2.923035894825232e-08	1.871761241031697e-07	2.634915500998956e-08	-5.307128047192255e-08	2.175893262830521e-07	-4.671604317473383e-08
1.06	-0.1113481848697573	-0.05939448366226825	0.6749909363975696	1.349206590006991	-0.3260976486125413	0.07122203187229917	-0.9598098069358413	1.421222171771499	1.421222171771399	-0.05387895580729108	-0.1745240421424339	0.2832798548937731	0.06936850263495634	0.1470504975935651	0.0250403124997298	0.1657498245669249	-0.5984909854665167	-0.01491357633350419	-0.1631316489276765	0.009324018737535088	-0.4627632031454732	-0.4627632031454686	-0.02495387875942748	7.807347292277638e-05	-0.04119772368228567	-0.03560273099625792	-0.3814755748711476	0.02014927443313266	0.001361945287953832	-0.3822333103595281	0.0412261708125565	0.02153996785408224	0.4346331568102978	-38.53570434269253	-0.9612078526247374	-2.181509513028513	12.00590519700384	-806.0885340442969	-65.34908151074727	-0.04129409934338009	0.7411216328927599	0.05775876064756582	1.576003370825304	-5.041927570872496	-0.1099060713009946	-1.622107919711324	0.4650963580153514	-5.106211102425443	-5.106211102425255	-0.4214760969282643	-0.02248295594438375	-1.165084316764433	-0.6377269658050431	-4.216065400599585e-08	-4.075527678019368e-08	2.102257519419336e-07	2.762973625091002e-08	-5.846419327725782e-08	2.259744409506082e-07	-5.182737870223997e-08
1.07	-0.1098413085207256	-0.05914088894351507	0.6767268311934438	1.342970922054056	-0.3262514370631006	0.06950912365038757	-0.9596910932514112	1.416339896403336	1.416339896403287	-0.05414780083086723	-0.174523335151746	0.2828098912470598	0.0689818867437387	0.1542908879970945	0.0257102477960191	0.1813987351936508	-0.6485714550550934	-0.01582677190071162	-0.1794299443082735	0.01459789737853761	-0.5136551984715834	-0.5136551984715848	-0.02880775881635666	6.334030335149497e-05	-0.05279116225723416	-0.04169179392758807	-0.3812358364013483	0.02048623729500623	0.001184738202044068	-0.3810098806903923	0.04126702585112448	0.02191582830390384	0.4351759018863003	-38.46802843647001	-1.179573352255563	-2.09726015850216	11.45592368101444	-805.9360099661596	-65.42773302116524	-0.04136748603402468	0.7104108863944023	0.07635920637391624	1.554762147057851	-4.980440091810301	-0.07944858945968505	-1.630729503943432	0.5854105015594121	-5.075181493823094	-5.075181493824076	-0.3662717091778018	0.009085982782448959	-1.155901438256895	-0.590216855380249	-4.660647934154515e-08	-5.227894596445248e-08	2.33111103305126e-07	2.895874129898057e-08	-6.386504572410916e-08	2.341490039354038e-07	-5.689908998846898e-08
1.08	-0.1082630456391966	-0.05887964521334814	0.6786183005432777	1.336236582717448	-0.3264138419273368	0.06763382464332869	-0.9595142654036835	1.410949803532689	1.410949803532685	-0.0544549702048315	-0.1745227645967049	0.2822241076525174	0.06853523604349117	0.1613278040930815	0.02657011478248282	0.1968647353588401	-0.6982252622020697	-0.01663685906908286	-0.1956098059572531	0.02094685139620788	-0.5643267036424658	-0.5643267036424726	-0.03261874883738768	5.078634361843884e-05	-0.06436171324805715	-0.04760969280224848	-0.3809960979315258	0.02082320015688533	0.001007531116155388	-0.3797864510212548	0.04130788088968925	0.02229168875373112	0.435718646962323	-38.41200822061708	-1.394913982282855	-2.014617148289641	10.95869263191083	-805.9355079962224	-65.48571282934769	-0.04144244485451027	0.7004267713843155	0.09574509868242892	1.539421278517995	-4.95659508255243	-0.08928439153375525	-1.598421173387851	0.6801114333488921	-5.062113071379898	-5.062113071379552	-0.4128980897486298	-0.02204711397673817	-1.160506799939365	-0.6034941544711045	-5.121472311400287e-08	-6.541997685395054e-08	2.527643077268354e-07	3.008422079346183e-08	-6.893894897012785e-08	2.39083326279449e-07	-6.167206839826992e-08
